HIERARCHY
ROOT Hips
{
  OFFSET -13.2887 92.3734 6.6709
  CHANNELS 6 Xposition Yposition Zposition Zrotation Xrotation Yrotation
  JOINT ToSpine
  {
    OFFSET -2.69724 7.43032 -0.144315
    CHANNELS 3 Zrotation Xrotation Yrotation
    JOINT Spine
    {
      OFFSET -0.0310711 10.7595 1.96963
      CHANNELS 3 Zrotation Xrotation Yrotation
      JOINT Spine1
      {
        OFFSET 13.1342 3.43533 0.764692
        CHANNELS 3 Zrotation Xrotation Yrotation
        JOINT Neck
        {
          OFFSET 29.8703 7.82586 -0.130764
          CHANNELS 3 Zrotation Xrotation Yrotation
          JOINT Head
          {
            OFFSET 9.52751 0.295786 -0.907742
            CHANNELS 3 Zrotation Xrotation Yrotation
            End Site
            {
              OFFSET 16.4037 0.713936 2.7358
            }
          }
        }
        JOINT LeftShoulder
        {
          OFFSET 27.5574 4.95586 2.47156
          CHANNELS 3 Zrotation Xrotation Yrotation
          JOINT LeftArm
          {
            OFFSET 1.20734 -0.998971 20.1238
            CHANNELS 3 Zrotation Xrotation Yrotation
            JOINT LeftForeArm
            {
              OFFSET 26.8049 -0.0536703 -0.155908
              CHANNELS 3 Zrotation Xrotation Yrotation
              JOINT LeftHand
              {
                OFFSET 26.6817 0 0.320147
                CHANNELS 3 Zrotation Xrotation Yrotation
                End Site
                {
                  OFFSET 18.6119 0 0.382219
                }
              }
            }
          }
        }
        JOINT RightShoulder
        {
          OFFSET 27.5927 4.71444 -2.65209
          CHANNELS 3 Zrotation Xrotation Yrotation
          JOINT RightArm
          {
            OFFSET 2.83739 -1.17114 -18.7564
            CHANNELS 3 Zrotation Xrotation Yrotation
            JOINT RightForeArm
            {
              OFFSET 28.839 -0.0548439 1.22491
              CHANNELS 3 Zrotation Xrotation Yrotation
              JOINT RightHand
              {
                OFFSET 26.5114 0 -0.101894
                CHANNELS 3 Zrotation Xrotation Yrotation
                End Site
                {
                  OFFSET 18.2168 0 0
                }
              }
            }
          }
        }
      }
    }
  }
  JOINT LeftUpLeg
  {
    OFFSET -4.76168 -1.9167 -10.2353
    CHANNELS 3 Zrotation Xrotation Yrotation
    JOINT LeftLeg
    {
      OFFSET 2.55951 -42.0585 -8.02213
      CHANNELS 3 Zrotation Xrotation Yrotation
      JOINT LeftFoot
      {
        OFFSET 3.16357 -42.5282 -3.95426
        CHANNELS 3 Zrotation Xrotation Yrotation
        JOINT LeftToeBase
        {
          OFFSET 0.346054 -6.02161 12.8035
          CHANNELS 3 Zrotation Xrotation Yrotation
          End Site
          {
            OFFSET 0.134235 -1.35082 5.13018
          }
        }
      }
    }
  }
  JOINT RightUpLeg
  {
    OFFSET -4.94151 -1.41743 10.6446
    CHANNELS 3 Zrotation Xrotation Yrotation
    JOINT RightLeg
    {
      OFFSET -2.56294 -42.0364 -7.94377
      CHANNELS 3 Zrotation Xrotation Yrotation
      JOINT RightFoot
      {
        OFFSET -3.0952 -42.555 -4.02241
        CHANNELS 3 Zrotation Xrotation Yrotation
        JOINT RightToeBase
        {
          OFFSET -0.0828122 -6.13587 12.8035
          CHANNELS 3 Zrotation Xrotation Yrotation
          End Site
          {
            OFFSET -0.131328 -1.35082 5.13018
          }
        }
      }
    }
  }
}
MOTION
Frames:	10
Frame Time:	0.0333333
0.250982 100.757 61.2368 -61.3209 -11.2974 129.305 -70.1915 0 88.8779 123.381 65.332 -35.0854 -10.0632 23.4059 -8.92847 -152.379 6.66222 -144.146 -148.955 42.3341 -176.673 -0.100675 -14.3283 -38.7332 -121.495 6.13159 -58.1503 -5.64648 -5.72833 -43.382 0.829201 -0.0374183 -2.69456 -1.07668 8.76108 26.012 -54.3198 -21.4968 112.389 -10.8163 -4.22113 111.047 0.58676 0.000331355 0.0646651 -3.73305 32.0583 80.8856 -159.064 70.2305 125.009 -3.02843 -14.9321 -1.2912 19.1582 -31.3141 21.9871 -10.6509 -36.7524 107.223 -1.58894 34.7976 -2.00597 -8.76571 -11.8162 1.30232 2.71132 -1.18383 -17.088 
0.754785 100.625 60.3086 -60.4828 -11.1827 133.007 -70.1915 0 88.8779 124.283 66.142 -34.7684 -9.08651 24.5373 -9.96106 -152.605 6.78802 -144.058 -150.934 42.8983 -175.323 -0.22287 -14.6605 -39.3069 -122.612 5.33225 -58.2287 -5.75479 -5.03977 -47.6097 0.722644 -0.0326926 -2.59709 -1.07986 9.24146 25.2488 -54.2054 -19.4055 120.174 -4.53823 -1.41485 107.446 0.58676 0.000331355 0.0646651 0.766488 29.9898 91.4988 -161.661 66.2809 124.809 -3.73201 -12.7217 -1.04085 21.4005 -33.0737 25.1869 -13.2378 -36.4575 99.523 -0.534842 34.0291 0.379406 -8.81096 -11.9963 1.30378 3.15398 -3.41891 -20.3966 
0.868101 100.54 59.2739 -60.879 -9.87033 138.022 -70.1915 0 88.8779 129.196 65.5066 -36.9143 -9.03309 25.4731 -11.0956 -151.543 7.02348 -145.051 -150.705 42.8907 -174.771 -0.1201 -14.3376 -39.0085 -123.617 5.78069 -57.3214 -5.75041 -4.09572 -53.3919 0.996093 -0.0314534 -1.70067 -1.09897 9.73024 24.7462 -53.6942 -17.8941 127.378 -1.65454 -0.395353 104.086 0.58676 0.000331355 0.0646651 0.282352 26.9218 101.445 -160.333 68.3292 119.728 -5.3791 -9.63257 -0.621161 21.3474 -33.4588 23.5652 -19.3122 -35.1209 90.059 0.520127 32.8803 1.16802 -9.36531 -11.8243 1.31707 3.14063 -6.2125 -22.2304 
0.534809 100.082 58.1719 -62.3327 -8.42252 142.789 -70.1915 0 88.8779 134.577 64.5912 -40.6362 -9.98972 26.2441 -11.2205 -149.542 7.57621 -146.268 -149.523 42.9191 -173.812 0.0885367 -13.6905 -38.2635 -124.313 6.12868 -55.7249 -4.12274 -2.15373 -61.13 1.3071 -0.0229416 -0.509 -1.17707 10.2982 24.7702 -53.4293 -16.639 132.338 1.10259 0.280992 102.891 0.58676 0.000331355 0.0646651 -4.30044 22.9042 109.934 -151.903 75.5525 109.456 -9.40149 -5.34791 0.291567 19.3342 -31.9606 19.9936 -25.1403 -32.091 84.6588 1.24592 33.6949 0.319596 -9.52666 -12.812 1.31694 3.26019 -4.63442 -22.2796 
-0.194107 99.1477 56.8838 -63.4006 -7.48192 147.705 -70.1915 0 88.8779 136.143 65.3532 -40.9717 -9.55271 26.8778 -10.976 -148.223 7.90377 -147.789 -148.816 43.0169 -173.175 0.34246 -12.8711 -37.252 -124.67 6.12378 -54.8176 -0.88391 -0.288181 -69.1269 1.35534 -0.00844779 0.519269 -1.21688 10.9342 24.3328 -53.9087 -15.7633 135.928 3.01126 0.744149 103.2 0.58676 0.000331355 0.0646651 -9.87515 18.5747 115.014 -106.998 83.7715 62.687 -14.4433 0.112768 1.8304 17.5229 -30.649 15.7198 -29.3789 -27.4825 81.8532 1.24654 35.7088 -1.44222 -9.38024 -14.8523 1.30532 3.3942 -2.55595 -22.0771 
-1.248 98.4212 55.3854 -64.096 -7.4385 153.464 -70.1915 0 88.8779 134.839 66.967 -37.7112 -8.47721 27.3357 -10.8568 -146.771 7.94769 -150.259 -148.08 42.7601 -173.732 0.55218 -12.208 -35.7477 -123.729 6.4148 -54.845 2.57455 0.639593 -75.7725 1.29176 0.00354148 1.24228 -1.12024 11.2195 23.0462 -54.3656 -16.1673 138.757 4.7402 1.21683 103.846 0.58676 0.000331355 0.0646651 -15.3772 13.4502 115.002 -25.2747 77.7285 -21.4039 -18.4341 4.21147 3.33902 14.731 -27.2967 12.7112 -33.8245 -22.4411 77.8922 1.22969 36.0409 -4.1678 -8.35062 -16.1953 1.31285 3.30715 -1.92824 -21.2795 
-2.63956 98.1339 53.9521 -65.6791 -7.82039 158.871 -70.1915 0 88.8779 133.007 68.4699 -34.9683 -7.29189 27.5482 -9.76442 -145.296 8.34973 -152.911 -147.253 42.8712 -174.6 0.529839 -12.3889 -34.7442 -122.308 6.33845 -56.1493 6.2998 0.957499 -80.7749 1.16294 0.0146868 2.04348 -0.742049 10.5982 20.037 -53.4157 -18.8824 141.45 6.91682 1.93167 105.085 0.58676 0.000331355 0.0646651 -22.5305 7.7181 112.295 -11.067 64.531 -33.4366 -21.2495 5.82052 4.25449 10.8314 -21.7811 9.80923 -38.9609 -18.3888 73.5048 1.54803 35.6829 -6.40318 -3.78722 -16.9456 1.41984 2.94018 -0.155197 -17.8811 
-4.07992 98.2493 52.4711 -67.1726 -7.87532 163.59 -70.1915 0 88.8779 129.436 69.9374 -31.8069 -5.4042 27.4048 -8.28255 -145.824 8.282 -154.284 -148.418 43.3103 -173.95 0.589471 -12.3074 -33.4564 -122.417 6.39832 -58.031 9.29629 0.802475 -84.4579 0.855759 0.0237435 2.84743 -0.45311 9.7308 17.6026 -51.7743 -21.0096 144.002 9.66707 3.0357 106.872 0.58676 0.000331355 0.0646651 -30.151 4.14741 109.614 -6.31727 52.2192 -34.1144 -22.0236 6.89651 4.69247 9.34464 -19.376 6.76305 -42.7271 -15.313 68.9015 1.60809 36.778 -5.37545 -1.28283 -13.6897 1.26204 2.00068 -3.47566 -12.2484 
-5.25827 98.8844 50.9886 -68.1871 -7.48768 167.941 -70.1915 0 88.8779 124.194 70.6339 -27.5166 -3.63809 26.6623 -6.97065 -146.255 7.35376 -155.506 -148.883 42.7465 -173.464 0.674864 -12.0452 -31.6701 -123.767 5.84094 -58.3807 9.89213 0.182346 -87.4319 0.598189 0.0270351 3.46557 -0.470252 9.4259 18.0622 -51.2274 -21.209 144.854 13.0579 4.45384 108.148 0.58676 0.000331355 0.0646651 -36.483 3.11356 108.245 -4.85794 43.0025 -30.688 -20.9667 6.39866 4.36134 7.84482 -16.7688 3.26803 -43.8652 -12.8423 65.5664 1.97196 40.5221 0.585596 -2.13327 -3.12542 0.606559 2.1149 -16.0964 -8.49346 
-6.23824 99.5055 49.7175 -69.6187 -7.32527 171.987 -70.1915 0 88.8779 120.815 70.3883 -25.4082 -2.94217 25.5565 -5.35176 -144.798 6.63019 -157.528 -147.872 41.8568 -173.374 0.599479 -12.5693 -30.2388 -125.178 4.08377 -57.9557 9.5779 0.0963533 -89.6571 0.407741 0.0279433 4.2299 -0.686346 9.11925 20.844 -51.2686 -20.1901 144.187 14.2582 5.13768 109.053 0.58676 0.000331355 0.0646651 -41.6855 3.35235 108.29 -3.83353 36.9749 -25.6192 -20.606 5.83637 4.1346 7.22931 -15.3066 0.246289 -43.0941 -11.9078 65.6918 3.64818 47.8516 7.48698 2.96755 4.40217 -0.704185 2.01412 -15.5442 -7.85067 
